<svg width="0" height="0" class="hidden">
  <symbol version="1.1" xml:space="preserve" xmlns="http://www.w3.org/2000/svg" xmlnsSerif="http://www.serif.com/" xmlns:xlink="http://www.w3.org/1999/xlink" viewBox="0 0 512 512" id="youtube_icon">
    <g>
      <path fill="#FF0000" d="M501.299,132.766c-5.888,-22.03 -23.234,-39.377 -45.264,-45.264c-39.932,-10.701 -200.037,-10.701 -200.037,-10.701c0,0 -160.105,0 -200.038,10.701c-22.025,5.887 -39.376,23.234 -45.264,45.264c-10.696,39.928 -10.696,123.236 -10.696,123.236c0,0 0,83.308 10.696,123.232c5.888,22.03 23.239,39.381 45.264,45.268c39.933,10.697 200.038,10.697 200.038,10.697c0,0 160.105,0 200.037,-10.697c22.03,-5.887 39.376,-23.238 45.264,-45.268c10.701,-39.924 10.701,-123.232 10.701,-123.232c0,0 0,-83.308 -10.701,-123.236Z"></path>
      <path fill="#FFFFFF" d="M204.796,332.803l133.018,-76.801l-133.018,-76.801l0,153.602Z"></path>
    </g>
  </symbol>
  <symbol version="1.1" xml:space="preserve" xmlns="http://www.w3.org/2000/svg" xmlnsSerif="http://www.serif.com/" xmlns:xlink="http://www.w3.org/1999/xlink" viewBox="0 0 512 512" id="twitter_icon">
    <path fill="#1da1f2" d="M161.014,464.013c193.208,0 298.885,-160.071 298.885,-298.885c0,-4.546 0,-9.072 -0.307,-13.578c20.558,-14.871 38.305,-33.282 52.408,-54.374c-19.171,8.495 -39.51,14.065 -60.334,16.527c21.924,-13.124 38.343,-33.782 46.182,-58.102c-20.619,12.235 -43.18,20.859 -66.703,25.498c-19.862,-21.121 -47.602,-33.112 -76.593,-33.112c-57.682,0 -105.145,47.464 -105.145,105.144c0,8.002 0.914,15.979 2.722,23.773c-84.418,-4.231 -163.18,-44.161 -216.494,-109.752c-27.724,47.726 -13.379,109.576 32.522,140.226c-16.715,-0.495 -33.071,-5.005 -47.677,-13.148l0,1.331c0.014,49.814 35.447,93.111 84.275,102.974c-15.464,4.217 -31.693,4.833 -47.431,1.802c13.727,42.685 53.311,72.108 98.14,72.95c-37.19,29.227 -83.157,45.103 -130.458,45.056c-8.358,-0.016 -16.708,-0.522 -25.006,-1.516c48.034,30.825 103.94,47.18 161.014,47.104"></path>
  </symbol>
  <symbol version="1.1" xml:space="preserve" xmlns="http://www.w3.org/2000/svg" xmlnsSerif="http://www.serif.com/" xmlns:xlink="http://www.w3.org/1999/xlink" viewBox="0 0 512 512" id="linkedin_icon">
    <path fill="#1765C3" d="M473.305,-1.353c20.88,0 37.885,16.533 37.885,36.926l0,438.251c0,20.393 -17.005,36.954 -37.885,36.954l-436.459,0c-20.839,0 -37.773,-16.561 -37.773,-36.954l0,-438.251c0,-20.393 16.934,-36.926 37.773,-36.926l436.459,0Zm-37.829,436.389l0,-134.034c0,-65.822 -14.212,-116.427 -91.12,-116.427c-36.955,0 -61.739,20.263 -71.867,39.476l-1.04,0l0,-33.411l-72.811,0l0,244.396l75.866,0l0,-120.878c0,-31.883 6.031,-62.773 45.554,-62.773c38.981,0 39.468,36.461 39.468,64.802l0,118.849l75.95,0Zm-284.489,-244.396l-76.034,0l0,244.396l76.034,0l0,-244.396Zm-37.997,-121.489c-24.395,0 -44.066,19.735 -44.066,44.047c0,24.318 19.671,44.052 44.066,44.052c24.299,0 44.026,-19.734 44.026,-44.052c0,-24.312 -19.727,-44.047 -44.026,-44.047Z"></path>
  </symbol>
</svg>
